<?xml version="1.0" encoding="UTF-8"?>
<!--Generator: Apple Native CoreSVG 326-->
<!DOCTYPE svg
PUBLIC "-//W3C//DTD SVG 1.1//EN"
       "http://www.w3.org/Graphics/SVG/1.1/DTD/svg11.dtd">
<svg version="1.1" xmlns="http://www.w3.org/2000/svg" xmlns:xlink="http://www.w3.org/1999/xlink" viewBox="0 0 157.275 98.584">
 <g>
  <rect height="98.584" opacity="0" width="157.275" x="0" y="0"/>
  <path d="M18.9941 98.4375L138.281 98.4375C150.879 98.4375 157.275 92.041 157.275 79.5898L157.275 18.8477C157.275 6.39648 150.879 0 138.281 0L18.9941 0C6.34766 0 0 6.34766 0 18.8477L0 79.5898C0 92.0898 6.34766 98.4375 18.9941 98.4375ZM23.6816 33.9844C21.875 33.9844 20.8496 32.9102 20.8496 31.1523L20.8496 25.4883C20.8496 23.7305 21.875 22.6562 23.6816 22.6562L29.2969 22.6562C31.1035 22.6562 32.1777 23.7305 32.1777 25.4883L32.1777 31.1523C32.1777 32.9102 31.1035 33.9844 29.2969 33.9844ZM44.4336 33.9844C42.627 33.9844 41.6016 32.9102 41.6016 31.1523L41.6016 25.4883C41.6016 23.7305 42.627 22.6562 44.4336 22.6562L50.0977 22.6562C51.8555 22.6562 52.9297 23.7305 52.9297 25.4883L52.9297 31.1523C52.9297 32.9102 51.8555 33.9844 50.0977 33.9844ZM65.1855 33.9844C63.4766 33.9844 62.4023 32.9102 62.4023 31.1523L62.4023 25.4883C62.4023 23.7305 63.4766 22.6562 65.1855 22.6562L70.8496 22.6562C72.6074 22.6562 73.7305 23.7305 73.7305 25.4883L73.7305 31.1523C73.7305 32.9102 72.6074 33.9844 70.8496 33.9844ZM85.9863 33.9844C84.2285 33.9844 83.1543 32.9102 83.1543 31.1523L83.1543 25.4883C83.1543 23.7305 84.2285 22.6562 85.9863 22.6562L91.6504 22.6562C93.4082 22.6562 94.4824 23.7305 94.4824 25.4883L94.4824 31.1523C94.4824 32.9102 93.4082 33.9844 91.6504 33.9844ZM106.787 33.9844C104.98 33.9844 103.906 32.9102 103.906 31.1523L103.906 25.4883C103.906 23.7305 104.98 22.6562 106.787 22.6562L112.402 22.6562C114.209 22.6562 115.234 23.7305 115.234 25.4883L115.234 31.1523C115.234 32.9102 114.209 33.9844 112.402 33.9844ZM127.539 33.9844C125.732 33.9844 124.658 32.9102 124.658 31.1523L124.658 25.4883C124.658 23.7305 125.732 22.6562 127.539 22.6562L133.154 22.6562C134.961 22.6562 135.986 23.7305 135.986 25.4883L135.986 31.1523C135.986 32.9102 134.961 33.9844 133.154 33.9844ZM23.6816 54.7852C21.875 54.7852 20.8496 53.6621 20.8496 51.9531L20.8496 46.2402C20.8496 44.5312 21.875 43.4082 23.6816 43.4082L29.2969 43.4082C31.1035 43.4082 32.1777 44.5312 32.1777 46.2402L32.1777 51.9531C32.1777 53.6621 31.1035 54.7852 29.2969 54.7852ZM44.4336 54.7852C42.627 54.7852 41.6016 53.6621 41.6016 51.9531L41.6016 46.2402C41.6016 44.5312 42.627 43.4082 44.4336 43.4082L50.0977 43.4082C51.8555 43.4082 52.9297 44.5312 52.9297 46.2402L52.9297 51.9531C52.9297 53.6621 51.8555 54.7852 50.0977 54.7852ZM65.1855 54.7852C63.4766 54.7852 62.4023 53.6621 62.4023 51.9531L62.4023 46.2402C62.4023 44.5312 63.4766 43.4082 65.1855 43.4082L70.8496 43.4082C72.6074 43.4082 73.7305 44.5312 73.7305 46.2402L73.7305 51.9531C73.7305 53.6621 72.6074 54.7852 70.8496 54.7852ZM85.9863 54.7852C84.2285 54.7852 83.1543 53.6621 83.1543 51.9531L83.1543 46.2402C83.1543 44.5312 84.2285 43.4082 85.9863 43.4082L91.6504 43.4082C93.4082 43.4082 94.4824 44.5312 94.4824 46.2402L94.4824 51.9531C94.4824 53.6621 93.4082 54.7852 91.6504 54.7852ZM106.787 54.7852C104.98 54.7852 103.906 53.6621 103.906 51.9531L103.906 46.2402C103.906 44.5312 104.98 43.4082 106.787 43.4082L112.402 43.4082C114.209 43.4082 115.234 44.5312 115.234 46.2402L115.234 51.9531C115.234 53.6621 114.209 54.7852 112.402 54.7852ZM127.539 54.7852C125.732 54.7852 124.658 53.6621 124.658 51.9531L124.658 46.2402C124.658 44.5312 125.732 43.4082 127.539 43.4082L133.154 43.4082C134.961 43.4082 135.986 44.5312 135.986 46.2402L135.986 51.9531C135.986 53.6621 134.961 54.7852 133.154 54.7852ZM23.6816 75.5371C21.875 75.5371 20.8496 74.4629 20.8496 72.7051L20.8496 67.041C20.8496 65.2832 21.875 64.209 23.6816 64.209L29.2969 64.209C31.1035 64.209 32.1777 65.2832 32.1777 67.041L32.1777 72.7051C32.1777 74.4629 31.1035 75.5371 29.2969 75.5371ZM44.9707 75.5371C42.8711 75.5371 41.6016 74.2676 41.6016 72.168L41.6016 67.5781C41.6016 65.4297 42.8711 64.209 44.9707 64.209L111.865 64.209C114.014 64.209 115.234 65.4297 115.234 67.5781L115.234 72.168C115.234 74.2676 114.014 75.5371 111.865 75.5371ZM127.539 75.5371C125.732 75.5371 124.658 74.4629 124.658 72.7051L124.658 67.041C124.658 65.2832 125.732 64.209 127.539 64.209L133.154 64.209C134.961 64.209 135.986 65.2832 135.986 67.041L135.986 72.7051C135.986 74.4629 134.961 75.5371 133.154 75.5371Z" fill="white" fill-opacity="1"/>
 </g>
</svg>
