<?xml version="1.0" encoding="UTF-8"?>
<!--Generator: Apple Native CoreSVG 326-->
<!DOCTYPE svg
PUBLIC "-//W3C//DTD SVG 1.1//EN"
       "http://www.w3.org/Graphics/SVG/1.1/DTD/svg11.dtd">
<svg version="1.1" xmlns="http://www.w3.org/2000/svg" xmlns:xlink="http://www.w3.org/1999/xlink" viewBox="0 0 75.7699 140.283">
 <g>
  <rect height="140.283" opacity="0" width="75.7699" x="0" y="0"/>
  <path d="M37.9094 140.186C59.4426 140.186 72.1867 129.785 74.0422 108.984C76.3859 82.9102 76.3371 58.0078 73.9445 30.2246C72.2355 10.4004 59.4426 0 37.9094 0C16.3273 0 3.58319 10.4004 1.82538 30.2246C-0.518374 58.0078-0.567202 82.9102 1.72772 108.984C3.63202 129.785 16.3273 140.186 37.9094 140.186ZM37.8605 115.82C35.9074 115.82 35.2238 116.797 33.7101 116.797C32.1476 116.797 31.1711 115.381 29.9504 113.623C28.4855 111.572 27.3625 108.447 27.3625 105.469C27.3625 100.732 30.4875 98.2422 33.5637 98.2422C35.1262 98.2422 36.2492 99.1699 37.5676 99.1699C38.8371 99.1699 39.9113 98.2422 41.9133 98.2422C42.5969 98.2422 45.1359 98.2422 46.7473 100.488C46.6008 100.684 44.1594 102.051 44.1594 105.273C44.1594 108.887 47.2844 110.107 47.3332 110.156C47.3332 110.254 46.8937 112.012 45.7219 113.721C44.5988 115.234 43.5246 116.797 41.9133 116.797C40.2531 116.797 39.7648 115.82 37.8605 115.82ZM37.3234 97.8516C37.3234 94.5312 39.6672 92.041 42.2062 92.041C42.7433 94.8242 40.2531 97.998 37.3234 97.8516Z" fill="white" fill-opacity="1"/>
 </g>
</svg>
