<?xml version="1.0" encoding="UTF-8"?>
<!--Generator: Apple Native CoreSVG 326-->
<!DOCTYPE svg
PUBLIC "-//W3C//DTD SVG 1.1//EN"
       "http://www.w3.org/Graphics/SVG/1.1/DTD/svg11.dtd">
<svg version="1.1" xmlns="http://www.w3.org/2000/svg" xmlns:xlink="http://www.w3.org/1999/xlink" viewBox="0 0 155.42 151.514">
 <g>
  <rect height="151.514" opacity="0" width="155.42" x="0" y="0"/>
  <path d="M123.443 24.7559L32.6153 24.7559C33.0795 14.09 39.2039 9.32617 49.4629 9.32617L106.592 9.32617C117.319 9.32617 123.013 14.09 123.443 24.7559Z" fill="white" fill-opacity="1"/>
  <path d="M147.607 50.2441L147.607 102.93C147.607 114.697 141.455 120.605 129.688 120.605L126.758 120.605L126.758 84.1309C126.758 75.9766 120.605 69.873 112.451 69.873L43.0176 69.873C34.8145 69.873 28.7109 75.9766 28.7109 84.1309L28.7109 120.605L25.7324 120.605C13.9648 120.605 7.8125 114.697 7.8125 102.93L7.8125 50.2441C7.8125 38.4277 14.4531 32.5195 25.7324 32.5195L129.688 32.5195C141.455 32.5195 147.607 38.4277 147.607 50.2441ZM107.91 52.5391C107.91 56.9336 111.475 60.4004 115.82 60.4004C120.068 60.4004 123.682 56.8359 123.682 52.5391C123.682 48.291 120.068 44.6777 115.82 44.6777C111.475 44.6777 107.91 48.291 107.91 52.5391Z" fill="white" fill-opacity="1"/>
  <path d="M36.5234 135.205C36.5234 140.332 39.8926 143.701 45.0195 143.701L110.449 143.701C115.527 143.701 118.945 140.332 118.945 135.205L118.945 84.1309C118.945 80.2246 116.357 77.6367 112.451 77.6367L43.0176 77.6367C39.1113 77.6367 36.5234 80.2246 36.5234 84.1309ZM56.8848 102.93C54.834 102.93 53.3203 101.367 53.3203 99.3652C53.3203 97.4121 54.834 95.8984 56.8848 95.8984L98.6816 95.8984C100.684 95.8984 102.197 97.4121 102.197 99.3652C102.197 101.367 100.684 102.93 98.6816 102.93ZM56.8848 125.439C54.834 125.439 53.3203 123.926 53.3203 122.021C53.3203 119.971 54.834 118.408 56.8848 118.408L98.6816 118.408C100.684 118.408 102.197 119.971 102.197 122.021C102.197 123.926 100.684 125.439 98.6816 125.439Z" fill="white" fill-opacity="1"/>
 </g>
</svg>
